<svg width="36" height="36" viewBox="0 0 36 36" fill="none" xmlns="http://www.w3.org/2000/svg">
<rect x="0.5" y="0.5" width="35" height="35" rx="7.5" fill="#1A1E28"/>
<rect x="0.5" y="0.5" width="35" height="35" rx="7.5" stroke="#353A48"/>
<g clip-path="url(#clip0_5043_206)">
<path d="M26.97 13.27C27.36 12.88 27.36 12.25 26.97 11.86L24.14 9.03005C23.75 8.64005 23.12 8.64005 22.73 9.03005L18.24 13.52L14.35 9.63005C13.57 8.85005 12.3 8.85005 11.52 9.63005L9.62 11.53C8.84 12.31 8.84 13.58 9.62 14.36L13.51 18.25L9 22.76V27H13.24L17.76 22.48L21.65 26.3701C22.6 27.3201 23.88 26.9701 24.48 26.3701L26.38 24.47C27.16 23.69 27.16 22.42 26.38 21.64L22.49 17.75L26.97 13.27ZM11.04 12.94L12.93 11.04L14.2 12.31L13.02 13.5L14.43 14.91L15.62 13.72L16.82 14.92L14.92 16.82L11.04 12.94ZM22.27 20.38L21.08 21.57L22.49 22.98L23.68 21.79L24.95 23.06L23.05 24.96L19.16 21.07L21.06 19.17L22.27 20.38ZM12.41 25H11V23.59L20.61 13.98L21.91 15.28L22.02 15.39L12.41 25ZM22.02 12.56L23.43 11.15L24.84 12.56L23.43 13.97L22.02 12.56Z" fill="#CB8BD0"/>
</g>
<defs>
<clipPath id="clip0_5043_206">
<rect width="24" height="24" fill="white" transform="translate(6 6)"/>
</clipPath>
</defs>
</svg>
