<svg width="20" height="20" viewBox="0 0 20 20" fill="none" xmlns="http://www.w3.org/2000/svg">
<path d="M3.62436 18.67C3.17766 18.67 2.79512 18.5108 2.47675 18.1924C2.15892 17.8746 2 17.4923 2 17.0456V5.67512C2 5.22842 2.15892 4.84588 2.47675 4.5275C2.79512 4.20967 3.17766 4.05076 3.62436 4.05076H10.8731L9.24871 5.67512H3.62436V17.0456H14.9949V11.401L16.6192 9.77663V17.0456C16.6192 17.4923 16.4603 17.8746 16.1425 18.1924C15.8241 18.5108 15.4416 18.67 14.9949 18.67H3.62436ZM12.7005 4.51776L13.8578 5.65481L8.49744 11.0152V12.1726H9.63449L15.0152 6.79186L16.1725 7.92892L10.7919 13.3096C10.643 13.4585 10.4705 13.5771 10.2745 13.6653C10.0779 13.7531 9.87138 13.7969 9.6548 13.7969H7.68526C7.45514 13.7969 7.26239 13.7192 7.10699 13.5638C6.95105 13.4079 6.87308 13.2149 6.87308 12.9847V11.0152C6.87308 10.7986 6.91369 10.5921 6.99491 10.3955C7.07613 10.1995 7.19118 10.027 7.34009 9.87815L12.7005 4.51776ZM16.1725 7.92892L12.7005 4.51776L14.7309 2.48731C15.0558 2.16244 15.4451 2 15.8988 2C16.352 2 16.7343 2.16244 17.0456 2.48731L18.1827 3.64466C18.494 3.956 18.6497 4.33502 18.6497 4.78172C18.6497 5.22842 18.494 5.60743 18.1827 5.91877L16.1725 7.92892Z" fill="#ADB2BB"/>
</svg>
