<svg width="40" height="40" viewBox="0 0 40 40" fill="none" xmlns="http://www.w3.org/2000/svg">
<rect width="40" height="40" rx="8" fill="#12151C"/>
<g clip-path="url(#clip0_5043_311)">
<path d="M13.3333 25H26.6667C27.125 25 27.5 24.625 27.5 24.1667C27.5 23.7083 27.125 23.3333 26.6667 23.3333H13.3333C12.875 23.3333 12.5 23.7083 12.5 24.1667C12.5 24.625 12.875 25 13.3333 25ZM13.3333 20.8333H26.6667C27.125 20.8333 27.5 20.4583 27.5 20C27.5 19.5417 27.125 19.1667 26.6667 19.1667H13.3333C12.875 19.1667 12.5 19.5417 12.5 20C12.5 20.4583 12.875 20.8333 13.3333 20.8333ZM12.5 15.8333C12.5 16.2917 12.875 16.6667 13.3333 16.6667H26.6667C27.125 16.6667 27.5 16.2917 27.5 15.8333C27.5 15.375 27.125 15 26.6667 15H13.3333C12.875 15 12.5 15.375 12.5 15.8333Z" fill="#ADB2BB"/>
</g>
<defs>
<clipPath id="clip0_5043_311">
<rect width="20" height="20" fill="white" transform="translate(10 10)"/>
</clipPath>
</defs>
</svg>
