<svg width="20" height="20" viewBox="0 0 20 20" fill="none" xmlns="http://www.w3.org/2000/svg">
<path d="M10.0001 15.8334C9.76397 15.8334 9.56619 15.7534 9.40675 15.5934C9.24675 15.4339 9.16675 15.2361 9.16675 15V10.8334H5.00008C4.76397 10.8334 4.56591 10.7534 4.40591 10.5934C4.24647 10.4339 4.16675 10.2361 4.16675 10C4.16675 9.76391 4.24647 9.56585 4.40591 9.40585C4.56591 9.24641 4.76397 9.16669 5.00008 9.16669H9.16675V5.00002C9.16675 4.76391 9.24675 4.56585 9.40675 4.40585C9.56619 4.24641 9.76397 4.16669 10.0001 4.16669C10.2362 4.16669 10.4342 4.24641 10.5942 4.40585C10.7537 4.56585 10.8334 4.76391 10.8334 5.00002V9.16669H15.0001C15.2362 9.16669 15.434 9.24641 15.5934 9.40585C15.7534 9.56585 15.8334 9.76391 15.8334 10C15.8334 10.2361 15.7534 10.4339 15.5934 10.5934C15.434 10.7534 15.2362 10.8334 15.0001 10.8334H10.8334V15C10.8334 15.2361 10.7537 15.4339 10.5942 15.5934C10.4342 15.7534 10.2362 15.8334 10.0001 15.8334Z" fill="#ADB2BB"/>
</svg>
