<svg width="19" height="17" viewBox="0 0 19 17" fill="none" xmlns="http://www.w3.org/2000/svg">
<path d="M16.0775 3.24508L7.74421 11.5784C7.41921 11.9034 6.89421 11.9034 6.56921 11.5784L4.21088 9.22008C3.88588 8.89508 3.88588 8.37008 4.21088 8.04508C4.53588 7.72008 5.06088 7.72008 5.38588 8.04508L7.15254 9.81175L14.8942 2.07008C15.2192 1.74508 15.7442 1.74508 16.0692 2.07008C16.4025 2.39508 16.4025 2.92008 16.0775 3.24508ZM8.33588 15.0034C4.41088 15.0034 1.26921 11.5951 1.71088 7.58675C2.03588 4.65341 4.31088 2.24508 7.21921 1.76175C8.72754 1.51175 10.1609 1.77841 11.3775 2.41175C11.7025 2.57841 12.0942 2.52008 12.3525 2.26175C12.7525 1.86175 12.6525 1.18675 12.1525 0.928413C10.9275 0.303413 9.54421 -0.0382537 8.06921 0.00341297C3.78588 0.136746 0.227544 3.62008 0.0108771 7.89508C-0.23079 12.7034 3.58588 16.6701 8.33588 16.6701C9.33588 16.6701 10.2859 16.4951 11.1775 16.1701C11.7442 15.9617 11.9025 15.2284 11.4692 14.7951C11.2442 14.5701 10.9025 14.4867 10.6025 14.6034C9.89421 14.8617 9.12754 15.0034 8.33588 15.0034ZM14.1692 10.8367H12.5025C12.0442 10.8367 11.6692 11.2117 11.6692 11.6701C11.6692 12.1284 12.0442 12.5034 12.5025 12.5034H14.1692V14.1701C14.1692 14.6284 14.5442 15.0034 15.0025 15.0034C15.4609 15.0034 15.8359 14.6284 15.8359 14.1701V12.5034H17.5025C17.9609 12.5034 18.3359 12.1284 18.3359 11.6701C18.3359 11.2117 17.9609 10.8367 17.5025 10.8367H15.8359V9.17008C15.8359 8.71175 15.4609 8.33675 15.0025 8.33675C14.5442 8.33675 14.1692 8.71175 14.1692 9.17008V10.8367Z" fill="#ADB2BB"/>
</svg>
